<svg width="70" height="70" viewBox="0 0 70 70" fill="none" xmlns="http://www.w3.org/2000/svg">
<path d="M35.0184 2.19419C21.7459 2.1918 9.77937 10.1864 4.7003 22.4488C-0.377808 34.7117 2.4311 48.826 11.8191 58.2083C24.6322 71.0214 45.4055 71.0214 58.2182 58.2083C71.0308 45.3962 71.0308 24.6229 58.2182 11.8098C52.0788 5.63553 43.7252 2.17315 35.0184 2.19419ZM35.0184 64.7717C18.611 64.7717 5.25625 51.4165 5.25625 35.009C5.25625 18.6016 18.611 5.24689 35.0184 5.24689C51.4258 5.24689 64.781 18.6016 64.781 35.009C64.781 51.4165 51.4258 64.7717 35.0184 64.7717Z" fill="#054461"/>
<path d="M50.6171 24.9208L30.9132 43.7547L20.168 33.0248C19.5739 32.4306 18.6106 32.4306 18.016 33.0248C17.4218 33.6195 17.4218 34.5827 18.016 35.1774L29.8142 46.9757C30.1006 47.2634 30.4916 47.4231 30.8979 47.4178C31.2918 47.4217 31.6709 47.2677 31.951 46.9905L52.7233 27.1341C53.3256 26.5504 53.3452 25.5905 52.7678 24.9829C52.1894 24.3758 51.23 24.3481 50.6171 24.9208Z" fill="#054461"/>
</svg>
