<?xml version="1.0" encoding="UTF-8" standalone="no"?>
<svg
   xmlns:dc="http://purl.org/dc/elements/1.1/"
   xmlns:cc="http://creativecommons.org/ns#"
   xmlns:rdf="http://www.w3.org/1999/02/22-rdf-syntax-ns#"
   xmlns:svg="http://www.w3.org/2000/svg"
   xmlns="http://www.w3.org/2000/svg"
   xmlns:sodipodi="http://sodipodi.sourceforge.net/DTD/sodipodi-0.dtd"
   xmlns:inkscape="http://www.inkscape.org/namespaces/inkscape"
   width="45"
   height="38"
   viewBox="0 0 45 38"
   fill="none"
   version="1.1"
   id="svg21"
   sodipodi:docname="addfriend.svg"
   inkscape:version="1.0.2-2 (e86c870879, 2021-01-15)">
  <metadata
     id="metadata25">
    <rdf:RDF>
      <cc:Work
         rdf:about="">
        <dc:format>image/svg+xml</dc:format>
        <dc:type
           rdf:resource="http://purl.org/dc/dcmitype/StillImage" />
        <dc:title></dc:title>
      </cc:Work>
    </rdf:RDF>
  </metadata>
  <sodipodi:namedview
     pagecolor="#ffffff"
     bordercolor="#666666"
     borderopacity="1"
     objecttolerance="10"
     gridtolerance="10"
     guidetolerance="10"
     inkscape:pageopacity="0"
     inkscape:pageshadow="2"
     inkscape:window-width="1920"
     inkscape:window-height="1001"
     id="namedview23"
     showgrid="false"
     showborder="false"
     inkscape:zoom="19.342105"
     inkscape:cx="22.5"
     inkscape:cy="19"
     inkscape:window-x="-9"
     inkscape:window-y="-9"
     inkscape:window-maximized="1"
     inkscape:current-layer="g14" />
  <g
     clip-path="url(#clip0)"
     id="g14">
    <path
       d="m 14.8202,3.83252 c -3.9214,0 -7.1117,3.38259 -7.1117,7.54028 0,4.1578 3.1903,7.5404 7.1117,7.5404 3.9215,0 7.1118,-3.3826 7.1118,-7.5404 0,-4.15769 -3.1903,-7.54028 -7.1118,-7.54028 z"
       fill="black"
       id="path2" />
    <path
       d="m 30.9888,4.91113 c -0.016,0 -0.0323,8e-5 -0.0484,1.5e-4 -1.6457,0.01363 -3.1829,0.70848 -4.3283,1.95673 -1.1254,1.22618 -1.7373,2.84381 -1.7232,4.55479 0.0142,1.711 0.6527,3.3183 1.7981,4.5258 1.1544,1.2169 2.6836,1.8852 4.311,1.8852 0.0164,0 0.0328,0 0.0492,-10e-5 1.6457,-0.0136 3.1829,-0.7086 4.3283,-1.9567 1.1254,-1.2262 1.7373,-2.8438 1.7232,-4.5549 C 37.0694,7.77633 34.3333,4.91113 30.9888,4.91113 Z"
       fill="black"
       id="path4" />
    <path
       d="m 31.289,19.0684 h -0.5905 c -2.7502,0 -5.2599,1.0456 -7.1548,2.7593 0.4741,0.3638 0.9254,0.7602 1.353,1.1879 1.2618,1.2617 2.2526,2.7319 2.9451,4.3696 0.624,1.4748 0.9801,3.0287 1.0631,4.6291 h 13.0577 v -2.2731 c 0,-5.8847 -4.7881,-10.6728 -10.6736,-10.6728 z"
       fill="black"
       id="path6" />
    <path
       d="m 26.6172,32.0146 c -0.2153,-3.4694 -1.974,-6.5209 -4.5986,-8.4767 -1.9093,-1.423 -4.2775,-2.2654 -6.8428,-2.2654 H 14.465 C 8.13286,21.2725 3,26.4053 3,32.7375 v 1.3606 h 23.6401 v -1.3606 c 0,-0.2428 -0.0076,-0.484 -0.0229,-0.7229 z"
       fill="black"
       id="path8" />
    <path
       d="m 33.6912,7.268 h 3.168 V 4.01 h 1.296 v 3.258 h 3.168 v 1.296 h -3.168 v 3.24 h -1.296 v -3.24 h -3.168 z"
       fill="#FFE559"
       id="path10" />
    <path
       d="m 33.6912,7.268 v -1 h -1 v 1 z m 3.168,0 v 1 h 1 v -1 z m 0,-3.258 v -1 h -1 v 1 z m 1.296,0 h 1 v -1 h -1 z m 0,3.258 h -1 v 1 h 1 z m 3.168,0 h 1 v -1 h -1 z m 0,1.296 v 1 h 1 v -1 z m -3.168,0 v -1 h -1 v 1 z m 0,3.24 v 1 h 1 v -1 z m -1.296,0 h -1 v 1 h 1 z m 0,-3.24 h 1 v -1 h -1 z m -3.168,0 h -1 v 1 h 1 z m 0,-0.296 h 3.168 v -2 h -3.168 z m 4.168,-1 V 4.01 h -2 v 3.258 z m -1,-2.258 h 1.296 v -2 h -1.296 z m 0.296,-1 v 3.258 h 2 V 4.01 Z m 1,4.258 h 3.168 v -2 h -3.168 z m 2.168,-1 v 1.296 h 2 V 7.268 Z m 1,0.296 h -3.168 v 2 h 3.168 z m -4.168,1 v 3.24 h 2 v -3.24 z m 1,2.24 h -1.296 v 2 h 1.296 z m -0.296,1 v -3.24 h -2 v 3.24 z m -1,-4.24 h -3.168 v 2 h 3.168 z m -2.168,1 V 7.268 h -2 v 1.296 z"
       fill="black"
       id="path12" />
    <rect
       style="fill:#ffe559;stroke-width:7.55906;fill-opacity:1"
       id="rect853"
       width="1.296"
       height="7.7940001"
       x="36.8592"
       y="4.0100002" />
    <rect
       style="fill:#ffe559;stroke-width:7.55906;fill-opacity:1"
       id="rect855"
       width="7.632"
       height="1.296"
       x="33.6912"
       y="7.2680001" />
  </g>
  <defs
     id="defs19">
    <clipPath
       id="clip0">
      <rect
         width="45"
         height="38"
         fill="white"
         id="rect16" />
    </clipPath>
  </defs>
</svg>
