<?xml version="1.0" encoding="iso-8859-1"?>
<!-- Generator: Adobe Illustrator 19.0.0, SVG Export Plug-In . SVG Version: 6.00 Build 0)  -->
<svg version="1.1" id="Layer_1" xmlns="http://www.w3.org/2000/svg" xmlns:xlink="http://www.w3.org/1999/xlink" x="0px" y="0px"
	 viewBox="0 0 501.758 501.758" style="enable-background:new 0 0 501.758 501.758;" xml:space="preserve">
<g>
	<g>
		<path d="M302.571,74.024c-6.4-9.6-19.2-11.733-28.8-4.267c-9.6,6.4-11.733,19.2-4.267,28.8c24.533,32,32,74.667,20.267,114.133
			c-9.6,32-32,58.667-61.867,74.667c-29.867,16-64,19.2-96,9.6c-66.133-20.267-104.533-91.733-84.267-157.867
			c14.933-46.933,52.267-80,100.267-88.533c11.733-2.133,19.2-12.8,17.067-24.533c-2.133-11.733-12.8-19.2-24.533-17.067
			C77.504,19.625,27.371,64.425,8.171,126.292c-24.533,82.133,16,168.533,92.8,202.667l-18.133,58.667l-28.8-8.533
			c-10.667-3.2-22.4,3.2-25.6,13.867c-3.2,10.667,3.2,22.4,13.867,25.6l28.8,8.533l-14.933,48c-3.2,10.667,3.2,22.4,13.867,25.6
			c2.133,1.067,4.267,1.067,6.4,1.067c8.533,0,17.067-5.333,19.2-14.933l14.933-48l33.067,10.667c2.133,1.067,4.267,1.067,6.4,1.067
			c8.533,0,17.067-5.333,19.2-14.933c3.2-10.667-3.2-22.4-13.867-25.6l-33.067-10.667l18.133-58.667
			c9.6,2.133,19.2,2.133,28.8,2.133c27.733,0,54.4-6.4,78.933-18.133c39.467-21.333,69.333-57.6,82.133-100.267
			C345.238,174.291,335.638,116.691,302.571,74.024z"/>
	</g>
</g>
<g>
	<g>
		<path d="M486.038,340.691c-10.667-3.2-22.4,3.2-25.6,13.867l-10.667,37.333l-49.067-87.467
			c67.2-50.133,87.467-142.933,46.933-217.6c-21.333-39.467-57.6-68.267-100.267-80c-42.667-12.8-88.533-7.467-128,14.933
			c-81.067,45.867-110.933,148.267-65.067,228.267c3.2,5.333,6.4,10.667,9.6,16c6.4,9.6,19.2,11.733,28.8,5.333
			c9.6-6.4,11.733-19.2,5.333-28.8c-3.2-3.2-5.333-7.467-7.467-11.733c-34.133-60.8-11.733-137.6,49.067-171.733
			c28.8-17.067,62.933-21.333,96-11.733c33.067,9.6,59.733,30.933,75.733,59.733c34.133,60.8,11.733,137.6-49.067,171.733
			c-12.8,6.4-26.667,11.733-40.533,13.867c-11.733,2.133-19.2,12.8-17.067,24.533c1.067,9.6,10.667,17.067,20.267,17.067
			c1.067,0,3.2,0,4.267,1.067c11.733-2.133,23.467-5.333,35.2-10.667l49.067,87.467l-38.4-10.667
			c-10.667-3.2-22.4,4.267-25.6,14.933c-2.133,10.667,4.267,22.4,14.933,25.6l86.4,24.533c1.067,1.067,3.2,1.067,5.333,1.067
			c9.6,0,18.133-5.333,20.267-14.933l23.467-87.467C503.104,355.624,496.704,343.891,486.038,340.691z"/>
	</g>
</g>
<g>
</g>
<g>
</g>
<g>
</g>
<g>
</g>
<g>
</g>
<g>
</g>
<g>
</g>
<g>
</g>
<g>
</g>
<g>
</g>
<g>
</g>
<g>
</g>
<g>
</g>
<g>
</g>
<g>
</g>
</svg>
