<svg width="124" height="124" viewBox="0 0 124 124" fill="none" xmlns="http://www.w3.org/2000/svg">
    <circle cx="62" cy="62" r="60.5" fill="#FE8900" stroke="#FED700" stroke-width="3"/>
    <path d="M39.4258 90H34.8387L38.0822 86.7564C39.8311 85.0076 40.9232 82.7329 41.2168 80.2653C33.7274 75.3504 30 68.2302 30 60.7657C30 46.9946 42.6569 33 62.4791 33C83.4785 33 94.7388 45.8777 94.7388 59.5592C94.7388 73.3309 83.3596 86.2 62.4791 86.2C58.8214 86.2 55.0045 85.7117 51.5968 84.8158C48.371 88.1244 44.0002 90 39.4258 90Z" fill="#FFECF4"/>
    <path d="M67.4 77.56H77.96V66.7H82.28V77.56H92.84V81.88H82.28V92.68H77.96V81.88H67.4V77.56Z" fill="#FFE559"/>
    <path d="M67.4 77.56V75.56H65.4V77.56H67.4ZM77.96 77.56V79.56H79.96V77.56H77.96ZM77.96 66.7V64.7H75.96V66.7H77.96ZM82.28 66.7H84.28V64.7H82.28V66.7ZM82.28 77.56H80.28V79.56H82.28V77.56ZM92.84 77.56H94.84V75.56H92.84V77.56ZM92.84 81.88V83.88H94.84V81.88H92.84ZM82.28 81.88V79.88H80.28V81.88H82.28ZM82.28 92.68V94.68H84.28V92.68H82.28ZM77.96 92.68H75.96V94.68H77.96V92.68ZM77.96 81.88H79.96V79.88H77.96V81.88ZM67.4 81.88H65.4V83.88H67.4V81.88ZM67.4 79.56H77.96V75.56H67.4V79.56ZM79.96 77.56V66.7H75.96V77.56H79.96ZM77.96 68.7H82.28V64.7H77.96V68.7ZM80.28 66.7V77.56H84.28V66.7H80.28ZM82.28 79.56H92.84V75.56H82.28V79.56ZM90.84 77.56V81.88H94.84V77.56H90.84ZM92.84 79.88H82.28V83.88H92.84V79.88ZM80.28 81.88V92.68H84.28V81.88H80.28ZM82.28 90.68H77.96V94.68H82.28V90.68ZM79.96 92.68V81.88H75.96V92.68H79.96ZM77.96 79.88H67.4V83.88H77.96V79.88ZM69.4 81.88V77.56H65.4V81.88H69.4Z" fill="black"/>
</svg>
