<svg width="41" height="41" viewBox="0 0 41 41" fill="none" xmlns="http://www.w3.org/2000/svg">
    <g clip-path="url(#clip0)">
        <path d="M7.88768 17.9014C5.27087 17.9014 3.14197 20.1586 3.14197 22.9331C3.14197 25.7076 5.27087 27.9648 7.88768 27.9648C10.5045 27.9648 12.6334 25.7076 12.6334 22.9331C12.6334 20.1586 10.5045 17.9014 7.88768 17.9014Z" fill="black"/>
        <path d="M18.6771 18.6221C18.6664 18.6221 18.6555 18.6221 18.6448 18.6222C17.5466 18.6313 16.5209 19.0949 15.7565 19.9279C15.0055 20.7461 14.5972 21.8256 14.6066 22.9674C14.616 24.1091 15.0422 25.1817 15.8065 25.9875C16.5768 26.7995 17.5973 27.2455 18.6833 27.2455C18.6942 27.2455 18.7051 27.2454 18.7161 27.2454C19.8143 27.2363 20.84 26.7726 21.6044 25.9396C22.3554 25.1214 22.7637 24.042 22.7543 22.9001C22.7347 20.534 20.9089 18.6221 18.6771 18.6221Z" fill="black"/>
        <path d="M18.8774 28.0693H18.4834C16.6481 28.0693 14.9734 28.7671 13.7089 29.9107C14.0253 30.1534 14.3264 30.418 14.6118 30.7034C15.4538 31.5453 16.1149 32.5264 16.577 33.6192C16.9935 34.6034 17.2311 35.6403 17.2865 36.7082H26V35.1914C26 31.2645 22.8049 28.0693 18.8774 28.0693Z" fill="black"/>
        <path d="M15.76 36.7083C15.6163 34.3932 14.4427 32.3569 12.6912 31.0518C11.4171 30.1022 9.83684 29.54 8.125 29.54H7.6507C3.4252 29.5401 0 32.9652 0 37.1907V38.0987H15.7752V37.1907C15.7752 37.0288 15.7701 36.8678 15.76 36.7083Z" fill="black"/>
    </g>
    <path d="M24.062 17.15H28.418V18.482H24.062V17.15Z" fill="#FF3D00"/>
    <path d="M24.062 17.15V16.15H23.062V17.15H24.062ZM28.418 17.15H29.418V16.15H28.418V17.15ZM28.418 18.482V19.482H29.418V18.482H28.418ZM24.062 18.482H23.062V19.482H24.062V18.482ZM24.062 18.15H28.418V16.15H24.062V18.15ZM27.418 17.15V18.482H29.418V17.15H27.418ZM28.418 17.482H24.062V19.482H28.418V17.482ZM25.062 18.482V17.15H23.062V18.482H25.062Z" fill="black"/>
    <defs>
        <clipPath id="clip0">
            <rect width="26" height="26" fill="white" transform="translate(0 15)"/>
        </clipPath>
    </defs>
</svg>
